<?xml version="1.0" encoding="UTF-8"?>
<svg version="1.1" xmlns="http://www.w3.org/2000/svg" width="252" height="47">
<path d="M0 0 C83.16 0 166.32 0 252 0 C252 15.51 252 31.02 252 47 C168.84 47 85.68 47 0 47 C0 31.49 0 15.98 0 0 Z " fill="#FCFDFE" transform="translate(0,0)"/>
<path d="M0 0 C5.36787898 1.88869816 8.45991584 4.91983169 11 10 C11.59106487 15.68331608 11.27243416 20.14777003 8 25 C3.01761811 29.49629585 0.035762 30.29429654 -6.52734375 30.21875 C-11.6131517 29.7688207 -14.75003066 26.71425067 -18 23 C-19.72237197 17.8328841 -19.65561622 12.89400242 -17.875 7.75 C-12.90046668 0.4540178 -8.6627837 -1.28389791 0 0 Z " fill="#BBCCFC" transform="translate(23,9)"/>
<path d="M0 0 C1.24716797 0.01289063 2.49433594 0.02578125 3.77929688 0.0390625 C5.07287109 0.07257812 6.36644531 0.10609375 7.69921875 0.140625 C9.01212891 0.15867187 10.32503906 0.17671875 11.67773438 0.1953125 C14.91480363 0.24239714 18.15038928 0.30815458 21.38671875 0.390625 C21.88171875 5.835625 21.88171875 5.835625 22.38671875 11.390625 C25.68671875 7.760625 28.98671875 4.130625 32.38671875 0.390625 C33.70671875 0.720625 35.02671875 1.050625 36.38671875 1.390625 C35.82198865 5.29891585 33.96539904 7.28982723 31.32421875 10.140625 C30.22400391 11.33945312 30.22400391 11.33945312 29.1015625 12.5625 C28.53566406 13.16578125 27.96976563 13.7690625 27.38671875 14.390625 C28.99147157 19.11573052 31.25891774 21.40422125 34.92578125 24.64453125 C36.38671875 26.390625 36.38671875 26.390625 36.38671875 30.390625 C31.48771825 29.98164982 29.68712045 27.99856133 26.57421875 24.328125 C25.78402344 23.40902344 24.99382812 22.48992188 24.1796875 21.54296875 C23.58800781 20.83269531 22.99632812 20.12242188 22.38671875 19.390625 C22.05671875 23.020625 21.72671875 26.650625 21.38671875 30.390625 C20.06671875 30.390625 18.74671875 30.390625 17.38671875 30.390625 C17.38671875 21.810625 17.38671875 13.230625 17.38671875 4.390625 C14.35484375 4.514375 11.32296875 4.638125 8.19921875 4.765625 C7.25280518 4.79962402 6.3063916 4.83362305 5.33129883 4.86865234 C-0.39004436 5.13707753 -4.6599973 5.49013251 -8.92578125 9.640625 C-10.95601983 12.94916195 -11.17036601 14.5706152 -10.61328125 18.390625 C-9.33639279 21.19977961 -8.30228308 22.89169264 -5.80078125 24.703125 C-2.88490849 25.61954215 -0.65820498 25.7013315 2.38671875 25.390625 C4.06701869 24.41370643 5.73600479 23.41674449 7.38671875 22.390625 C8.37671875 22.720625 9.36671875 23.050625 10.38671875 23.390625 C10.10036034 26.15875626 9.56747764 27.2219167 7.51171875 29.140625 C2.77535265 31.03517144 -1.59206973 31.28855267 -6.61328125 30.390625 C-10.88554132 28.04581441 -13.80155969 24.9241422 -15.61328125 20.390625 C-16.31405942 15.45258347 -16.16886526 11.50179302 -13.92578125 7.015625 C-9.51799121 2.01218765 -6.8132497 -0.12444292 0 0 Z " fill="#6B8DC0" transform="translate(182.61328125,8.609375)"/>
<path d="M0 0 C2.6063936 0.28458853 3.76924599 0.76772674 5.6315918 2.64233398 C6.40756714 3.68369507 6.40756714 3.68369507 7.19921875 4.74609375 C7.76833984 5.50083984 8.33746094 6.25558594 8.92382812 7.03320312 C9.7968457 8.22333008 9.7968457 8.22333008 10.6875 9.4375 C11.28111328 10.22705078 11.87472656 11.01660156 12.48632812 11.83007812 C16.79951054 17.59902108 16.79951054 17.59902108 18 20 C18.33 13.4 18.66 6.8 19 0 C20.32 0.33 21.64 0.66 23 1 C23 10.57 23 20.14 23 30 C17.375 28.875 17.375 28.875 14.66796875 24.96484375 C14.09755859 24.15595703 13.52714844 23.34707031 12.93945312 22.51367188 C12.36130859 21.66353516 11.78316406 20.81339844 11.1875 19.9375 C10.59001953 19.08349609 9.99253906 18.22949219 9.37695312 17.34960938 C7.90514034 15.24197347 6.45085634 13.12211637 5 11 C4.67 17.27 4.34 23.54 4 30 C2.35 29.67 0.7 29.34 -1 29 C-1.02465881 25.03069011 -1.04284023 21.06140966 -1.05493164 17.09204102 C-1.05997057 15.74079614 -1.06680177 14.38955674 -1.07543945 13.03833008 C-1.08752419 11.09979566 -1.09269828 9.161222 -1.09765625 7.22265625 C-1.10289307 6.05484619 -1.10812988 4.88703613 -1.11352539 3.68383789 C-1 1 -1 1 0 0 Z " fill="#AEC1F2" transform="translate(42,9)"/>
<path d="M0 0 C3.1293173 0.74342897 4.94179824 2.18840477 7.12109375 4.50390625 C8.85741011 7.97653898 8.72299777 11.71583638 8.12109375 15.50390625 C5.9395023 18.25960072 4.24931881 19.93979372 1.12109375 21.50390625 C-2.78687105 21.94799316 -4.62438771 21.64095469 -8.12890625 19.75390625 C-11.74138634 16.79824072 -12.57603878 15.2075358 -13.37890625 10.69140625 C-12.76150308 6.75546105 -11.49003867 4.74960108 -8.79296875 1.8671875 C-5.87962404 -0.2078274 -3.49920473 -0.27734 0 0 Z " fill="#FDFDFE" transform="translate(20.87890625,13.49609375)"/>
<path d="M0 0 C0.74886475 0.00523682 1.49772949 0.01047363 2.26928711 0.01586914 C3.07817383 0.0190918 3.88706055 0.02231445 4.72045898 0.02563477 C5.5705957 0.03401367 6.42073242 0.04239258 7.29663086 0.05102539 C8.15063477 0.05553711 9.00463867 0.06004883 9.88452148 0.06469727 C12.00108749 0.07652166 14.11761771 0.0944577 16.23413086 0.11352539 C16.56413086 1.43352539 16.89413086 2.75352539 17.23413086 4.11352539 C12.28413086 4.11352539 7.33413086 4.11352539 2.23413086 4.11352539 C2.23413086 6.75352539 2.23413086 9.39352539 2.23413086 12.11352539 C6.85413086 12.11352539 11.47413086 12.11352539 16.23413086 12.11352539 C16.56413086 13.43352539 16.89413086 14.75352539 17.23413086 16.11352539 C16.23413086 17.11352539 16.23413086 17.11352539 13.07397461 17.21118164 C11.78620117 17.19958008 10.49842773 17.18797852 9.17163086 17.17602539 C7.8812793 17.16700195 6.59092773 17.15797852 5.26147461 17.14868164 C4.26245117 17.13708008 3.26342773 17.12547852 2.23413086 17.11352539 C2.23413086 20.08352539 2.23413086 23.05352539 2.23413086 26.11352539 C7.18413086 26.11352539 12.13413086 26.11352539 17.23413086 26.11352539 C17.23413086 27.43352539 17.23413086 28.75352539 17.23413086 30.11352539 C10.63413086 30.11352539 4.03413086 30.11352539 -2.76586914 30.11352539 C-2.78878308 26.00174612 -2.80870865 21.89012881 -2.82080078 17.77832031 C-2.82583994 16.37857311 -2.83267131 14.97883119 -2.84130859 13.57910156 C-2.85339234 11.57106762 -2.85856721 9.56299582 -2.86352539 7.55493164 C-2.86876221 6.34522705 -2.87399902 5.13552246 -2.87939453 3.88916016 C-2.727497 0.17534717 -2.727497 0.17534717 0 0 Z " fill="#A2B8E9" transform="translate(76.765869140625,8.886474609375)"/>
<path d="M0 0 C3.5625 1.5 3.5625 1.5 6 3 C5.67 4.65 5.34 6.3 5 8 C4.43796875 7.67257813 3.8759375 7.34515625 3.296875 7.0078125 C0.73140036 5.88214506 -0.96842277 5.7931889 -3.75 5.875 C-4.94882813 5.90207031 -4.94882813 5.90207031 -6.171875 5.9296875 C-7.07679688 5.96449219 -7.07679688 5.96449219 -8 6 C-7.95426591 7.9170357 -7.95426591 7.9170357 -7 10 C-4.30818925 11.73338749 -4.30818925 11.73338749 -1.0625 13.125 C4.8410596 15.8410596 4.8410596 15.8410596 7 18 C7.44678306 22.02104757 7.6808704 24.13756416 5.125 27.375 C0.68161799 30.77288036 -3.56743812 30.4690595 -9 30 C-12.125 28.8125 -12.125 28.8125 -14 27 C-14.3125 24.3125 -14.3125 24.3125 -14 22 C-11.83125748 22.50603992 -10.00032373 22.99983813 -8 24 C-6.45976004 24.06950541 -4.91665012 24.08452357 -3.375 24.0625 C-2.55773437 24.05347656 -1.74046875 24.04445313 -0.8984375 24.03515625 C-0.27195313 24.02355469 0.35453125 24.01195313 1 24 C1 22.68 1 21.36 1 20 C0.16855469 19.61328125 -0.66289062 19.2265625 -1.51953125 18.828125 C-2.60621094 18.30734375 -3.69289062 17.7865625 -4.8125 17.25 C-5.89144531 16.73953125 -6.97039062 16.2290625 -8.08203125 15.703125 C-10.96801413 14.01866913 -12.4043368 12.90478124 -14 10 C-13.93600929 6.35252953 -13.76209885 3.98437768 -11.5 1.0625 C-7.6690846 -0.56563904 -4.09823247 -0.55209349 0 0 Z " fill="#6286B9" transform="translate(238,9)"/>
<path d="M0 0 C2.5625 1.8125 2.5625 1.8125 3.4375 4.5 C3.47875 5.263125 3.52 6.02625 3.5625 6.8125 C-1.3125 5.9375 -1.3125 5.9375 -2.4375 4.8125 C-7.18640356 4.20699317 -11.12334591 3.84252912 -15.0625 6.75 C-16.90922426 10.86315859 -17.28364847 14.37436829 -16.4375 18.8125 C-14.56129387 21.31410818 -13.19858697 22.43195652 -10.4375 23.8125 C-5.68391342 24.23504103 -3.38715106 23.37443582 0.5625 20.8125 C1.5525 20.8125 2.5425 20.8125 3.5625 20.8125 C3.30914237 23.93724407 2.97162508 25.41701242 0.6875 27.625 C-4.05725125 29.42800548 -8.43744236 29.71379794 -13.4375 28.8125 C-17.45605659 26.54269361 -19.90120236 23.61694647 -22.4375 19.8125 C-23.14999183 14.53508959 -23.08306003 10.10362006 -20.6875 5.3125 C-14.82177012 -1.20497764 -8.33731571 -2.88016361 0 0 Z " fill="#95AEDF" transform="translate(121.4375,10.1875)"/>
<path d="M0 0 C2.475 0.495 2.475 0.495 5 1 C5 9.25 5 17.5 5 26 C9.29 26 13.58 26 18 26 C18 27.32 18 28.64 18 30 C12.06 30 6.12 30 0 30 C0 20.1 0 10.2 0 0 Z " fill="#89A4D5" transform="translate(132,9)"/>
<path d="M0 0 C1.98 0.495 1.98 0.495 4 1 C4 10.57 4 20.14 4 30 C2.35 29.67 0.7 29.34 -1 29 C-1.02465881 25.03069011 -1.04284023 21.06140966 -1.05493164 17.09204102 C-1.05997057 15.74079614 -1.06680177 14.38955674 -1.07543945 13.03833008 C-1.08752419 11.09979566 -1.09269828 9.161222 -1.09765625 7.22265625 C-1.10289307 6.05484619 -1.10812988 4.88703613 -1.11352539 3.68383789 C-1 1 -1 1 0 0 Z " fill="#819ECE" transform="translate(155,9)"/>
</svg>
