<?xml version="1.0" encoding="utf-8"?>
<!-- Generator: Adobe Illustrator 27.5.0, SVG Export Plug-In . SVG Version: 6.00 Build 0)  -->
<svg version="1.1" xmlns="http://www.w3.org/2000/svg" xmlns:xlink="http://www.w3.org/1999/xlink" x="0px" y="0px"
	 viewBox="0 0 750 500" style="enable-background:new 0 0 750 500;" xml:space="preserve">
<g id="BACKGROUND">
</g>
<g id="OBJECTS">
	<g>
		<g style="opacity:0.15;">
			<path style="fill:#5CC8E0;" d="M-0.315,499.078c0.479-48.005,9.946-96.632,33.469-138.776
				c23.523-42.144,62.024-77.339,108.865-91.793c41.56-12.825,86.549-8.898,129.419-1.223
				c53.562,9.59,106.145,24.826,160.311,30.298c54.165,5.472,111.656,0.267,157.728-28.103
				c65.288-40.203,98.667-120.507,158.257-164.883l0.224,396.344L-0.315,499.078z"/>
		</g>
		<g>
			<circle style="fill:none;stroke:#FF4F4D;stroke-miterlimit:10;" cx="676.128" cy="180.705" r="7.981"/>
			<path style="fill:#FF4F4D;" d="M653.183,246.548c0,2.755-2.233,4.988-4.988,4.988c-2.755,0-4.988-2.233-4.988-4.988
				c0-2.755,2.233-4.988,4.988-4.988C650.949,241.56,653.183,243.793,653.183,246.548z"/>
			<circle style="fill:#F9DF43;" cx="92.518" cy="104.885" r="3.99"/>
			<circle style="fill:none;stroke:#1E3252;stroke-miterlimit:10;" cx="134.917" cy="214.624" r="4.489"/>
		</g>
	</g>
	<g>
		<g>
			<g>
				<g>
					<path style="fill:#BACFD4;" d="M259.561,437.895c0,1.024-9.548,1.855-21.326,1.855c-11.778,0-21.326-0.83-21.326-1.855
						s9.548-1.854,21.326-1.854C250.013,436.04,259.561,436.87,259.561,437.895z"/>
					<g>
						<polygon style="fill:#FFBD91;" points="243.565,416.207 238.231,439.397 202.749,439.397 202.749,436.594 222.925,424.871 
							225.399,416.632 						"/>
						<path style="fill:#E88F6F;" d="M222.925,424.871c1.169-0.747,20.64-8.664,20.64-8.664l-18.166,0.425L222.925,424.871z"/>
						<path style="fill:#FF4F4D;stroke:#FF4F4D;stroke-width:0.9294;stroke-miterlimit:10;" d="M222.67,424.871l6.006,6.426
							c1.579,1.69,4.08,1.743,5.718,0.123l6.829-6.804l-3.247,14.78h-35.482v-2.803L222.67,424.871z"/>
					</g>
				</g>
				<g>
					<path style="fill:#BACFD4;" d="M325.736,437.895c0,1.024-9.548,1.855-21.326,1.855c-11.778,0-21.326-0.83-21.326-1.855
						s9.548-1.854,21.326-1.854C316.188,436.04,325.736,436.87,325.736,437.895z"/>
					<g>
						<polygon style="fill:#FFBD91;" points="301.215,415.952 305.378,439.142 340.86,439.142 340.86,436.339 320.684,424.617 
							320.309,416.377 						"/>
						<polygon style="fill:#E88F6F;" points="320.684,424.617 320.309,416.377 301.215,415.952 						"/>
						<path style="fill:#FF4F4D;stroke:#FF4F4D;stroke-width:0.9294;stroke-miterlimit:10;" d="M321.071,424.617l-6.006,6.426
							c-1.579,1.689-4.08,1.743-5.718,0.123l-6.108-6.819l2.526,14.796h35.482v-2.803L321.071,424.617z"/>
					</g>
				</g>
				<g>
					<path style="fill:#5CC8E0;" d="M245.632,210.012L218.637,416.89l24.88-0.51l31.44-130.294c1.754-5.31,7.633-5.257,9.514,0
						l14.092,131.061l23.408-0.34c0,0,6.318-127.695-17.114-215.326L245.632,210.012z"/>
					<path style="opacity:0.14;fill:#1E3252;" d="M244.086,232.574c0,0,1.854,14.836,33.38,11.127
						c31.526-3.709,33.998-17.926,33.998-17.926L244.086,232.574z"/>
					<g>
						<path style="fill:none;stroke:#212252;stroke-width:0.9537;stroke-miterlimit:10;" d="M285.605,206.509l6.889,22.901
							c2.077,6.903,8.792,11.609,16.349,11.456l4.483,0.029"/>
						<path style="fill:none;stroke:#212252;stroke-width:0.9294;stroke-miterlimit:10;" d="M256.03,205.857l1.941,23.738
							c0.585,7.156-3.727,13.806-10.499,16.191l-6.781,2.388"/>
						
							<line style="fill:none;stroke:#212252;stroke-width:0.9294;stroke-miterlimit:10;" x1="297.461" y1="409.056" x2="321.972" y2="409.056"/>
						
							<line style="fill:none;stroke:#212252;stroke-width:0.9294;stroke-miterlimit:10;" x1="219.978" y1="409.056" x2="245.322" y2="409.056"/>
					</g>
				</g>
			</g>
			<g>
				<g>
					<path style="fill:#FFB99A;" d="M394.759,138.048c0,0,0.642-18.945,2.683-18.181c2.041,0.764,1.565,9.063,1.796,10.445
						c0.697,4.155,13.188-19.451,14.581-18.566c1.251,0.795-2.387,11.868-2.387,11.868s2.28-10.71,3.596-10.018
						c1.315,0.692,0.709,10.811,0.709,10.811s0.708-9.388,1.408-8.235c0.701,1.154,0.855,10.064,0.855,10.064
						s-0.091-6.306-0.075-4.284c0.109,13.796-11.416,27.657-11.416,27.657s-27.813,31.65-45.259,38.861
						c-20.117,8.315-43.037,4.294-55.178-11.208l-26.057-33.271c-6.411-10.488-7.603-21.096,3.875-28.548l0,0
						c11.478-7.452,26.489-1.322,32.901,9.166l23.437,28.052c7.316,9.551,26.379,5.848,37.374-1.864l16.258-11.404
						C394.326,139.067,394.651,138.58,394.759,138.048L394.759,138.048z"/>
					<path style="opacity:0.2;fill:#02022B;" d="M345.804,158.535l5.986,32.811c0,0-2.549,0.665-8.535,1.33L345.804,158.535z"/>
				</g>
				<g>
					<path style="fill:#FFB99A;" d="M144.64,105.001c0,0,9.397-16.462,7.259-16.884c-2.138-0.421-6.089,6.893-7.012,7.948
						c-2.774,3.171-1.016-23.478-2.666-23.456c-1.482,0.02-4.198,11.355-4.198,11.355s3.681-10.313,2.198-10.414
						c-1.483-0.101-6.278,8.829-6.278,8.829s4.326-8.362,3.124-7.748c-1.202,0.614-6.01,8.117-6.01,8.117s3.387-5.32,2.312-3.607
						c-7.334,11.686-4.8,29.533-4.8,29.533s7.061,41.538,18.125,56.833c12.759,17.637,34.378,26.245,52.849,19.422l39.643-14.642
						c10.962-5.562,15.1-20.096,9.241-32.464l0,0c-5.858-12.368-18.172-11.026-29.134-5.464l-35.909,13.704
						c-11.241,4.29-25.523-8.869-30.833-21.203l-7.852-18.24C144.473,106.096,144.452,105.51,144.64,105.001L144.64,105.001z"/>
					<path style="opacity:0.2;fill:#02022B;" d="M190.726,159.758l-2.221,27.368c0,0,6.744,0.141,14.955-4.043L190.726,159.758z"/>
				</g>
				<g>
					<path style="fill:#1E3252;" d="M334.308,142.123c0,0-21.443-44.85-48.497-29.68c-0.949,0.532-2.127,0.356-3.154,0.623
						c-9.208,1.441-18.79,0.514-34.111,0.016c-7.237-2.675-15.99-1.45-22.647,3.901l-32.412,23.29c0,0,29.288,39.758,32.68,43.153
						l10.039-9.166c1.289,30.437,0,58.49,0,58.49l77.656-6.068l-2.797-44.456l4.256,5.402
						C315.261,182.829,334.308,142.123,334.308,142.123z"/>
					
						<path style="fill:none;stroke:#FFFFFF;stroke-width:0.9294;stroke-linecap:round;stroke-miterlimit:10;stroke-dasharray:3.2986;" d="
						M236.977,223.611c0,0,64.906-4.327,76.033-4.945"/>
					
						<line style="fill:none;stroke:#FFFFFF;stroke-width:0.9294;stroke-linecap:round;stroke-miterlimit:10;stroke-dasharray:3.2986;" x1="198.343" y1="136.143" x2="231.105" y2="179.104"/>
					
						<line style="fill:none;stroke:#FFFFFF;stroke-width:0.9294;stroke-linecap:round;stroke-miterlimit:10;stroke-dasharray:3.2986;" x1="329.082" y1="134.288" x2="311.064" y2="182.226"/>
				</g>
				<g>
					<g>
						<path style="fill:#FFB99A;" d="M278.844,94.72l0.821,24.109c0,0-12.676,13.797-25.815-1.823l5.833-23.518L278.844,94.72z"/>
						<path style="fill:#02022B;" d="M279.205,73.492l0.065,22.704c0,0-12.171,23.186-20.461-1.45l7.171-23.253L279.205,73.492z"/>
					</g>
					<g>
						<g>
							<g>
								<g>
									<path style="fill:#FFB99A;stroke:#FFB99A;stroke-width:1.3229;stroke-miterlimit:10;" d="M254.853,80.903l3.992-0.698
										l0.433,4.717l-3.993,0.698c-1.229,0.215-2.323-0.667-2.442-1.969l0,0C252.724,82.348,253.623,81.118,254.853,80.903z"/>
									<path style="fill:#E78D87;stroke:#E78D87;stroke-width:1.3489;stroke-miterlimit:10;" d="M255.081,82.108l1.648-0.288
										l0.178,1.948l-1.648,0.288c-0.508,0.089-0.959-0.275-1.008-0.813l0,0C254.202,82.704,254.574,82.197,255.081,82.108z"/>
								</g>
								<g>
									<path style="fill:#FFB99A;stroke:#FFB99A;stroke-width:1.3229;stroke-miterlimit:10;" d="M285.631,82.793l-4.009,0.135
										l0.157-4.778l4.009-0.135c1.234-0.042,2.2,0.994,2.156,2.314l0,0C287.902,81.648,286.866,82.752,285.631,82.793z"/>
									<path style="fill:#E78D87;stroke:#E78D87;stroke-width:1.3489;stroke-miterlimit:10;" d="M285.798,79.548l-1.654,0.026
										l-0.096,1.973l1.654-0.026c0.509-0.008,0.944-0.456,0.97-1.001l0,0C286.699,79.976,286.307,79.54,285.798,79.548z"/>
								</g>
								<path style="fill:#FFB99A;stroke:#FFB99A;stroke-width:1.3229;stroke-miterlimit:10;" d="M268.838,98.795l-0.087,0.012
									c-9.367-0.557-12.69-7.24-12.034-15.201l0.05-0.608c0.656-7.961,6.262-20.227,13.683-20.056l-0.012-0.087
									c7.421,0.172,13.86,12.803,13.204,20.764l-0.05,0.608C282.936,92.189,279.376,99.19,268.838,98.795z"/>
							</g>
							<g>
								<path style="fill:#FFFFFF;" d="M270.051,93.68l-0.011,0c-3.27-0.04-5.751-2.346-5.542-5.15l0.029-0.384l11.854,0.144
									l-0.029,0.384C276.143,91.478,273.322,93.72,270.051,93.68z"/>
								<path style="fill:#02022B;" d="M267.729,81.494c-0.057,0.58-0.448,1.017-0.873,0.975c-0.425-0.042-0.724-0.546-0.667-1.126
									c0.057-0.58,0.448-1.017,0.873-0.975C267.487,80.41,267.786,80.914,267.729,81.494z"/>
								<path style="fill:#02022B;" d="M274.722,81.46c-0.062,0.582-0.456,1.017-0.881,0.972c-0.425-0.045-0.719-0.554-0.658-1.135
									c0.062-0.582,0.456-1.018,0.881-0.972C274.489,80.369,274.784,80.878,274.722,81.46z"/>
								<path style="fill:#D97570;" d="M271.704,86.23l-2.745-0.134c-0.338-0.016-0.542-0.455-0.384-0.825l1.411-3.299
									c0.179-0.419,0.669-0.417,0.833,0.003l1.333,3.432C272.303,85.796,272.056,86.247,271.704,86.23z"/>
								<path style="fill:#02022B;" d="M263.641,78.1c-0.824,0.578,0.443-2.004,1.568-2.304c1.126-0.3,2.248,0.244,2.508,1.216
									C267.717,77.012,265.619,76.712,263.641,78.1z"/>
								<path style="fill:#02022B;" d="M276.508,77.32c0.838,0.556-0.495-1.991-1.628-2.261c-1.133-0.271-2.241,0.303-2.474,1.282
									C272.405,76.34,274.494,75.984,276.508,77.32z"/>
							</g>
						</g>
						<path style="fill:#8A4627;stroke:#8A4627;stroke-width:0.9294;stroke-miterlimit:10;" d="M282.898,67.855
							c1.048-0.335,1.738-1.379,1.582-2.506c-0.158-1.136-1.119-1.955-2.23-1.979c0.124-0.391,0.167-0.797,0.074-1.197
							c-0.199-0.859-1.229-1.536-2.027-1.129c-0.145-3.114-2.836-5.91-5.993-6.227c-3.157-0.317-6.393,1.885-7.207,4.903
							c-0.727-0.685-1.454-1.369-2.181-2.054c-0.223-0.21-0.461-0.429-0.762-0.501c-0.716-0.174-1.355,0.576-1.464,1.294
							c-0.109,0.718,0.097,1.45,0.021,2.172c-0.764-0.478-1.35-1.188-2.095-1.694c-0.745-0.506-1.784-0.781-2.546-0.293
							c-0.785,0.502-0.931,1.628-0.578,2.476c0.216,0.521,0.579,0.957,0.984,1.359c-0.38-0.17-0.809-0.245-1.252-0.183
							c-1.26,0.175-2.14,1.339-1.965,2.599c0.106,0.76,0.574,1.377,1.203,1.712c-0.181,0.288-0.353,0.582-0.502,0.888
							c-0.931,1.907-1.253,4.071-1.171,6.154c0.039,0.99,1.242,6.756,2.144,6.938c0.492,0.099,4.719-10.163,6.004-12.652
							c1.338-0.458,2.81-1.424,2.895-2.266c0.304,1.076,0.746,2.303,1.821,2.666c0.875,0.296,1.871-0.141,2.488-0.823
							c0.617-0.682,0.937-1.567,1.242-2.428c0.72,1.138,1.815,2.043,3.081,2.545c0.78,0.309,1.72,0.452,2.429,0.001
							c0.232-0.147,0.403-0.377,0.503-0.632l-0.026,0.843c0.496,1.015,5.693,9.551,6.518,9.667c0.632,0.089-0.314-7.579-0.764-9.006
							C283.052,68.279,282.976,68.063,282.898,67.855z M277.256,65.782c0.053,0.041,0.117,0.065,0.173,0.101l-0.006,0.197
							C277.383,65.971,277.332,65.868,277.256,65.782z"/>
					</g>
				</g>
			</g>
		</g>
		<g>
			<g>
				<g>
					<path style="fill:#8A4627;" d="M467.766,89.471c0,0-16.121,5.757-21.201,23.646c-5.08,17.889-12.158,34.115-25.249,35.081
						c-13.091,0.966-26.849,10.207-27.634,13.055c-0.785,2.848,42.198,64.595,78.029,49.372l4.609-32.544l0.613,25.316
						c0,0,1.132,4.741,13.796-3.584C503.394,191.487,520.245,74.791,467.766,89.471z"/>
					<g>
						<g>
							<path style="fill:#8A4627;" d="M477.272,88.511c-8.467-1.929-17.366,0.059-24.047,5.693
								c-8.06,6.796-9.873,17.288-11.502,27.146c-0.961,5.813-1.897,11.819-4.513,17.163c-3.387,6.916-9.575,9.327-16.932,9.559
								c-11.171,0.353-21.398-0.878-29.273,8.558c-0.952,1.14,0.683,2.793,1.643,1.643c8.767-10.504,20.492-6.458,32.252-8.282
								c8.952-1.388,13.81-7.34,16.434-15.683c3.091-9.826,2.633-20.706,7.144-30.102c5.074-10.568,16.8-16.046,28.176-13.454
								C478.111,91.083,478.732,88.844,477.272,88.511L477.272,88.511z"/>
						</g>
					</g>
				</g>
				<g>
					
						<path style="fill:#FFC699;stroke:#FFC699;stroke-width:1.3824;stroke-linecap:round;stroke-linejoin:round;stroke-miterlimit:10;" d="
						M481.71,115.484c0,0,2.87,24.759,3.342,26.646c0,0-7.512,8.431-18.41,2.359c0,0,1.193-7.346,3.115-22.499L481.71,115.484z"/>
					<path style="fill:#02022B;" d="M471.305,99.614L471.305,99.614c-4.77,1.049-6.455,8.338-4.712,16.263l0.133,0.605
						c1.742,7.925,8.288,15.497,12.269,14.51l0.164-0.084c3.099-1.028,5.169-9.706,3.427-17.63l0.4-1.219
						C481.243,104.133,476.074,98.565,471.305,99.614z"/>
				</g>
				<g>
					<g>
						<g>
							<path style="fill:#FFC699;stroke:#FFC699;stroke-width:1.3448;stroke-miterlimit:10;" d="M461.611,113.459l3.988-1.354
								l-1.509-4.446l-3.988,1.354c-1.228,0.417-1.885,1.75-1.468,2.978l0,0C459.05,113.218,460.383,113.876,461.611,113.459z"/>
							<path style="fill:#FFC699;stroke:#FFC699;stroke-width:1.3448;stroke-miterlimit:10;" d="M488.933,102.411l-4.05,1.153
								l1.285,4.516l4.05-1.152c1.247-0.355,1.97-1.654,1.616-2.901l0,0C491.479,102.779,490.18,102.056,488.933,102.411z"/>
							
								<path style="fill:#F08E7F;stroke:#F08E7F;stroke-width:1.3395;stroke-linecap:round;stroke-linejoin:round;stroke-miterlimit:10;" d="
								M489.436,103.566l-1.672,0.476l0.531,1.864l1.672-0.476c0.515-0.146,0.813-0.683,0.667-1.197l0,0
								C490.487,103.718,489.951,103.419,489.436,103.566z"/>
							
								<path style="fill:#F08E7F;stroke:#F08E7F;stroke-width:1.3395;stroke-linecap:round;stroke-linejoin:round;stroke-miterlimit:10;" d="
								M460.468,110.28l1.637-0.587l0.654,1.825l-1.637,0.587c-0.504,0.181-1.059-0.081-1.239-0.585l0,0
								C459.702,111.016,459.964,110.461,460.468,110.28z"/>
						</g>
						<path style="fill:#FFC699;stroke:#FFC699;stroke-width:1.3259;stroke-miterlimit:10;" d="M471.352,94.82l-0.001,0
							c-7.611,1.797-11.161,9.141-9.414,16.54l0.134,0.565c1.747,7.399,9.331,12.586,15.697,10.977l0.052-0.026
							c4.988-1.504,12.187-9.937,10.44-17.336l-0.133-0.565C486.379,97.576,478.964,93.023,471.352,94.82z"/>
					</g>
					<g>
						<path style="fill:#FFFFFF;" d="M476.611,117.599l0.56-0.149c1.974-0.524,3.15-2.55,2.625-4.524l0,0l-7.709,2.047l0,0
							C472.612,116.948,474.637,118.124,476.611,117.599z"/>
						<path style="fill:#02022B;" d="M477.023,108.683c0.148,0.559,0.611,0.922,1.035,0.81c0.424-0.112,0.649-0.656,0.501-1.215
							c-0.148-0.559-0.611-0.922-1.035-0.81C477.1,107.58,476.876,108.124,477.023,108.683z"/>
						<path style="fill:#02022B;" d="M471.03,110.257c0.105,0.569,0.54,0.965,0.972,0.886c0.431-0.08,0.696-0.605,0.591-1.174
							c-0.105-0.569-0.54-0.965-0.971-0.886C471.19,109.162,470.925,109.688,471.03,110.257z"/>
						<path style="fill:#F08E7F;" d="M474.535,112.768l2.04-0.474c0.251-0.058,0.342-0.424,0.172-0.687l-1.523-2.349
							c-0.194-0.299-0.561-0.231-0.624,0.115l-0.517,2.823C474.025,112.515,474.273,112.829,474.535,112.768z"/>
						<path style="fill:#02022B;" d="M468.604,108.41c-0.474,0.488,0.04-1.386,0.749-1.728c0.709-0.342,1.524-0.123,1.819,0.49
							C471.172,107.171,469.741,107.238,468.604,108.41z"/>
						<path style="fill:#02022B;" d="M479.673,105.423c0.652,0.194-0.713-1.19-1.499-1.141c-0.786,0.048-1.389,0.638-1.347,1.317
							C476.827,105.599,478.108,104.957,479.673,105.423z"/>
					</g>
					<path style="fill:#8A4627;" d="M459.964,106.458l5.266-1.996l-0.028-4.551l2.037,3.624c0,0,11.262-2.159,15.763-3.632
						l-1.595-2.366c0,0,2.961,4.385,4.995,4.761c0,0-0.309-12.827-15.389-10.817C460.486,92.884,457.999,103.676,459.964,106.458z"
						/>
				</g>
			</g>
			<g>
				<g>
					<path style="fill:#FFC699;stroke:#FFC699;stroke-width:0.9845;stroke-miterlimit:10;" d="M408.877,396.583l-7.268,18.337
						c0,0-2.366,12.031,2.271,9.291c4.637-2.74,8.299-3.564,8.299-3.564l10.223-17.357L408.877,396.583z"/>
					<path style="fill:#D46F4C;stroke:#D46F4C;stroke-width:1.2869;stroke-miterlimit:10;" d="M404.635,427.17
						c0,0-6.807-4.617-2.418-12.714l7.779-20.037L404.635,427.17z"/>
					<path style="fill:#1E3252;stroke:#1E3252;stroke-width:0.8084;stroke-miterlimit:10;" d="M413.461,421.211l11.377,17.548
						c0.509,0.786-0.304,1.458-1.202,0.99c-7.348-3.838-27.097-14.275-32.283-17.033c-0.629-0.335-0.834-1.031-0.409-1.386
						c2.349-1.965,10.816-9.622,11.277-9.469c0,0,0.693,8.096,3.172,8.595c2.134,0.428,5.714,0.273,6.544,0.022
						C412.498,420.307,413.208,420.657,413.461,421.211z"/>
					
						<line style="fill:none;stroke:#FFFFFF;stroke-width:0.6531;stroke-miterlimit:10;" x1="416.163" y1="423.941" x2="412.206" y2="425.084"/>
					
						<line style="fill:none;stroke:#FFFFFF;stroke-width:0.6531;stroke-miterlimit:10;" x1="417.233" y1="426.332" x2="413.276" y2="427.474"/>
				</g>
				<path style="fill:#BACFD4;" d="M492.268,438.643c0,1.024-9.548,1.854-21.326,1.854c-11.778,0-21.326-0.83-21.326-1.854
					s9.548-1.854,21.326-1.854C482.72,436.788,492.268,437.618,492.268,438.643z"/>
				<g>
					<g>
						<path style="fill:#FFC699;stroke:#FFC699;stroke-width:0.9845;stroke-miterlimit:10;" d="M478.212,408.662l1.554,19.727
							c0,0,3.166,11.836,6.106,7.255c2.94-4.582,5.849-7.004,5.849-7.004l1.517-20.211L478.212,408.662z"/>
						<path style="fill:#D46F4C;stroke:#D46F4C;stroke-width:1.2869;stroke-miterlimit:10;" d="M487.844,437.939
							c0,0-8.107-0.992-7.738-10.245l-1.842-21.48L487.844,437.939z"/>
						<path style="fill:#1E3252;stroke:#1E3252;stroke-width:0.8084;stroke-miterlimit:10;" d="M493.113,428.553l17.863,10.439
							c0.8,0.467,0.368,1.443-0.639,1.438c-8.248-0.046-30.47-0.28-36.313-0.357c-0.709-0.009-1.197-0.537-0.973-1.05
							c1.236-2.836,5.441-13.574,5.919-13.65c0,0,4.171,6.914,6.605,6.218c2.095-0.6,5.224-2.387,5.855-2.993
							C491.857,428.189,492.645,428.174,493.113,428.553z"/>
						
							<line style="fill:none;stroke:#FFFFFF;stroke-width:0.6531;stroke-miterlimit:10;" x1="496.725" y1="429.748" x2="493.691" y2="432.59"/>
						
							<line style="fill:none;stroke:#FFFFFF;stroke-width:0.6531;stroke-miterlimit:10;" x1="498.729" y1="431.391" x2="495.696" y2="434.233"/>
					</g>
					<g>
						<path style="fill:#FF4F4D;" d="M455.949,203.85c-5.407,11.759-8.014,14.94-11.392,29.193
							c-3.918,16.529-3.088,38.789-5.373,55.406c-2.338,17.004-2.069,15.572-6.014,34.495c-4.907,23.536-20.833,48.901-33.08,71.487
							c0.911,1.4,20.044,12.598,25.966,16.33c18.602-23.49,32.839-50.086,40.088-79.786c5.499-22.53,7.008-46.028,8.276-67.701
							c0.152-2.602,3.876-2.658,4.098-0.061c1.856,21.701-5.793,110.242-3.718,147.148c3.164,0,27.333,0.867,31.888,0.867
							c3.019-36.203,2.787-51.907,4.556-91.217c1.755-39.014,6.049-76.876-17.994-116.179
							C478.706,204.188,467.924,204.088,455.949,203.85z"/>
						<g>
							<path style="fill:none;stroke:#FFFFFF;stroke-width:0.6531;stroke-miterlimit:10;" d="M488.557,204.193
								c0.894,1.756-0.004,23.904,16.416,24.397"/>
							<path style="fill:none;stroke:#FFFFFF;stroke-width:0.6531;stroke-miterlimit:10;" d="M463.07,204.193
								c-0.894,1.756,0.004,23.904-16.416,24.397"/>
							
								<line style="fill:none;stroke:#FFFFFF;stroke-width:0.6531;stroke-miterlimit:10;" x1="432.549" y1="402.993" x2="404.545" y2="385.52"/>
							
								<line style="fill:none;stroke:#FFFFFF;stroke-width:0.6531;stroke-miterlimit:10;" x1="474.716" y1="401.015" x2="507.227" y2="402.004"/>
							<path style="fill:none;stroke:#FFFFFF;stroke-width:0.6531;stroke-miterlimit:10;" d="M470.329,310.961
								c-0.937-0.603-24.58,9.357-10.199,38.802"/>
							<path style="fill:none;stroke:#FFFFFF;stroke-width:0.6531;stroke-miterlimit:10;" d="M511.437,311.388
								c0,0-26.889,15.145-1.545,38.325"/>
						</g>
						<path style="opacity:0.14;fill:#1E3252;" d="M493.249,203.832l-50.399,41.884c0,0,0.882-20.211,13.099-41.866L493.249,203.832
							z"/>
					</g>
				</g>
			</g>
			<g>
				<g>
					
						<path style="fill:#FFC699;stroke:#FFC699;stroke-width:1.3395;stroke-linecap:round;stroke-linejoin:round;stroke-miterlimit:10;" d="
						M492.832,153.605c-2.803,45.325,65.819,42.311,65.819,42.311l15.055-0.579c14.64,3.824,21.208,2.907,21.208,2.907l-9.602-2.372
						l13.665,0.063c0.368-0.004-0.721-0.653-1.08-0.723l-11.098-2.176l13.79-0.735c0.31-0.017,0.336-0.464,0.03-0.516l-13.862-2.363
						c0,0,13.183-0.966,11.827-1.738c-1.356-0.772-16.89-1.77-16.89-1.77s9.466-3.414,7.932-4.048
						c-0.996-0.412-7.389,1.114-11.749,2.234c-2.808,0.722-2.918,1.642-5.816,1.221c0,0-22.968-1.62-40.741-9.41
						c-10.415-4.565-16.281-12.736-22.047-19.987L492.832,153.605z"/>
					<path style="opacity:0.2;fill:#02022B;" d="M539.923,178.434l-1.133,16.742c0,0-6.027-0.309-9.118-1.391L539.923,178.434z"/>
				</g>
				<g>
					
						<path style="fill:#FFC699;stroke:#FFC699;stroke-width:1.3395;stroke-linecap:round;stroke-linejoin:round;stroke-miterlimit:10;" d="
						M454.874,166.764l-5.99,19.093c-2.799,9.777-9.588,16.479-19.648,14.988l-49.922-8.241c-0.072,0.008-18.392,2.11-18.392,2.11
						l-0.809-1.253l18.225-11.455l5.269,1.229l40.336-0.021c3.94-0.002,7.457-2.472,8.796-6.178l11.673-30.276L454.874,166.764z"/>
					<polygon style="opacity:0.2;fill:#02022B;" points="438.957,159.31 451.08,180.891 455.193,167.896 					"/>
				</g>
				<g>
					<path style="fill:#5CC8E0;" d="M485.304,140.732c-2.506,4.023-10.562,7.32-18.409-4.533c0,0-12.699-8.136-21.882,6.936
						c-8.288,13.603-8.382,14.027-8.382,14.027l17.197,14.731l1.193,31.959l49.307,1.608c0,0-5.25-22.817-4.327-26.511
						c0.155-0.618,15.145-25.19,15.145-25.19S495.483,124.391,485.304,140.732z"/>
					
						<line style="fill:none;stroke:#FFFFFF;stroke-width:0.6531;stroke-miterlimit:10;" x1="454.67" y1="191.982" x2="500.825" y2="193.219"/>
				</g>
			</g>
		</g>
		<g>
			<g>
				<g>
					<path style="fill:#BACFD4;" d="M208.038,439.346c0,1.024-9.548,1.854-21.326,1.854c-11.778,0-21.326-0.83-21.326-1.854
						s9.548-1.854,21.326-1.854C198.49,437.491,208.038,438.322,208.038,439.346z"/>
					<g>
						<path style="fill:#FFBD91;" d="M188.659,413.263l-0.32,9.932c0,0,2.908,12.625,5.002,8.35
							c2.093-4.274,6.533-5.787,6.533-5.787l3.204-12.496H188.659z"/>
						<path style="fill:#2D3473;" d="M200.925,424.925l14.983,9.621c0.671,0.431,0.318,1.344-0.523,1.345
							c-6.883,0.012-25.428-0.06-30.305-0.093c-0.591-0.004-1.003-0.493-0.82-0.973c1.011-2.654,3.775-10.023,4.087-12.054
							c0.055-0.357,4.284,5.704,6.309,5.038C196.401,427.236,200.531,424.574,200.925,424.925z"/>
						<path style="fill:#5CC8E0;" d="M214.272,441.138h-28.798c-1.072,0-1.942-0.869-1.942-1.941v-2.544
							c0-0.531,0.43-0.961,0.961-0.961h30.758c0.531,0,0.961,0.43,0.961,0.961v2.544
							C216.214,440.268,215.344,441.138,214.272,441.138z"/>
						<polygon style="fill:#E88F6F;" points="200.594,424.901 203.535,414.572 193.7,414.3 						"/>
						<g>
							<g>
								<path style="fill:#FFFFFF;" d="M183.577,438.877c3.729-2.454,10.776,0.737,15.272,0.854
									c5.668,0.148,11.346,0.078,17.014-0.052c0.617-0.014,0.62-0.975,0-0.961c-6.619,0.151-13.443,0.533-20.045-0.069
									c-4.333-0.395-8.674-3.269-12.725-0.603C182.577,438.386,183.059,439.218,183.577,438.877L183.577,438.877z"/>
							</g>
						</g>
						<path style="fill:#FFFFFF;stroke:#FFFFFF;stroke-width:0.3204;stroke-miterlimit:10;" d="M192.874,435.779
							c-3.438-0.041-6.314-0.078-7.843-0.101c-0.591-0.009-0.999-0.501-0.812-0.98c0.516-1.323,1.479-3.821,2.355-6.242
							L192.874,435.779z"/>
						<path style="fill:#FFFFFF;stroke:#FFFFFF;stroke-width:0.3204;stroke-miterlimit:10;" d="M205.084,435.917
							c4.111,0.043,7.875,0.079,10.25,0.094c0.84,0.005,1.201-0.905,0.533-1.341l-6.392-4.176L205.084,435.917z"/>
					</g>
				</g>
				<g>
					<path style="fill:#BACFD4;" d="M139.423,439.346c0,1.024-9.548,1.854-21.326,1.854c-11.778,0-21.326-0.83-21.326-1.854
						s9.548-1.854,21.326-1.854C129.875,437.491,139.423,438.322,139.423,439.346z"/>
					<g>
						<path style="fill:#FFBD91;" d="M121.336,413.263l-0.32,9.932c0,0,2.908,12.625,5.001,8.35
							c2.093-4.274,6.533-5.787,6.533-5.787l3.204-12.496H121.336z"/>
						<path style="fill:#2D3473;" d="M133.602,424.925l14.983,9.621c0.671,0.431,0.318,1.344-0.523,1.345
							c-6.883,0.012-25.428-0.06-30.304-0.093c-0.591-0.004-1.003-0.493-0.82-0.973c1.011-2.654,3.775-10.023,4.087-12.054
							c0.055-0.357,4.284,5.704,6.309,5.038C129.077,427.236,133.208,424.574,133.602,424.925z"/>
						<path style="fill:#5CC8E0;" d="M146.949,441.138h-28.798c-1.072,0-1.941-0.869-1.941-1.941v-2.544
							c0-0.531,0.43-0.961,0.961-0.961h30.758c0.531,0,0.961,0.43,0.961,0.961v2.544
							C148.89,440.268,148.021,441.138,146.949,441.138z"/>
						<polygon style="fill:#E88F6F;" points="135.547,413.345 125.712,413.04 132.937,424.925 						"/>
						<g>
							<g>
								<path style="fill:#FFFFFF;" d="M116.254,438.877c3.729-2.454,10.776,0.737,15.272,0.854
									c5.668,0.148,11.346,0.078,17.014-0.052c0.618-0.014,0.62-0.975,0-0.961c-6.619,0.151-13.443,0.533-20.045-0.069
									c-4.333-0.395-8.674-3.269-12.725-0.603C115.254,438.386,115.735,439.218,116.254,438.877L116.254,438.877z"/>
							</g>
						</g>
						<path style="fill:#FFFFFF;stroke:#FFFFFF;stroke-width:0.3204;stroke-miterlimit:10;" d="M125.551,435.779
							c-3.438-0.041-6.313-0.078-7.843-0.101c-0.591-0.009-0.999-0.501-0.812-0.98c0.516-1.323,1.479-3.821,2.355-6.242
							L125.551,435.779z"/>
						<path style="fill:#FFFFFF;stroke:#FFFFFF;stroke-width:0.3204;stroke-miterlimit:10;" d="M137.76,435.917
							c4.111,0.043,7.875,0.079,10.25,0.094c0.84,0.005,1.201-0.905,0.533-1.341l-6.392-4.176L137.76,435.917z"/>
					</g>
				</g>
				<g>
					<path style="fill:#FF4F4D;" d="M168.633,200.305c-11.858,0.005-11.057,18.964-14.212,33.204
						c-3.658,16.513-44.181,149.477-45.907,179.514c4.509,1.254,38.078,1.279,40.927,1.097
						c9.065-29.977,38.208-155.771,38.923-156.777c-1.11,26.934-13.558,141.105-10.925,156.81c2.365,1.389,36.927,0.945,39.658,0.55
						c2.97-36.989,17.279-191.349-12.623-214.171C189.506,200.194,179.446,200.301,168.633,200.305z"/>
					<polygon style="opacity:0.14;fill:#1E3252;" points="185.962,200.325 178.646,267.165 168.633,200.305 					"/>
					<g>
						<path style="fill:none;stroke:#FFFFFF;stroke-width:1.2404;stroke-miterlimit:10;" d="M198.663,200.487
							c0,0,9.831,10.004,14.337,33.05c4.506,23.046-3.248,172.277-3.248,172.277"/>
						<path style="fill:none;stroke:#FFFFFF;stroke-width:1.1646;stroke-miterlimit:10;" d="M173.607,202.215
							c0,0-51.725,182.053-57.235,202.078"/>
						<g>
							<g>
								
									<line style="fill:none;stroke:#FFFFFF;stroke-width:1.1646;stroke-miterlimit:10;" x1="216.445" y1="405.436" x2="214.698" y2="405.436"/>
								
									<line style="fill:none;stroke:#FFFFFF;stroke-width:1.1646;stroke-miterlimit:10;stroke-dasharray:3.8397,3.8397;" x1="210.858" y1="405.436" x2="182.061" y2="405.436"/>
								
									<line style="fill:none;stroke:#FFFFFF;stroke-width:1.1646;stroke-miterlimit:10;" x1="180.141" y1="405.436" x2="178.394" y2="405.436"/>
							</g>
						</g>
						
							<line style="fill:none;stroke:#FFFFFF;stroke-width:1.1646;stroke-miterlimit:10;stroke-dasharray:3.4939;" x1="150.503" y1="405.873" x2="109.548" y2="403.259"/>
						
							<line style="fill:none;stroke:#FFFFFF;stroke-width:1.2404;stroke-miterlimit:10;" x1="215.103" y1="214.331" x2="211.498" y2="226.815"/>
						
							<line style="fill:none;stroke:#FFFFFF;stroke-width:1.2404;stroke-miterlimit:10;" x1="216.906" y1="219.773" x2="213" y2="232.896"/>
					</g>
				</g>
			</g>
			<g>
				<g>
					<path style="fill:#020A2B;stroke:#020A2B;stroke-width:0.6197;stroke-miterlimit:10;" d="M195.814,147.197
						c-2.22-10.128,4.389-10.071,5.129-18.333c0.297-3.316-3.11-6.785-3.299-8.961c-0.207-2.377,1.931-5.053,2.317-7.407
						c0.559-3.407-1.282-11.429-2.292-13.422c-2.764-5.459-6.581-8.706-11.961-10.142c-23.635-6.309-26.705,19.317-31.637,27.768
						c0,0-5.007,13.89-13.331,15.592c-13.207,2.699-22.603,14.846-17.524,26.993c0,0,7.619,29.693,36.318,24.024l16.068-35.418
						l2.178-3.437l4.667,2.743C182.446,147.197,198.034,157.325,195.814,147.197z"/>
					<g>
						<g>
							<path style="fill:#020A2B;" d="M184.623,88.991c-7.446-1.859-15.138-0.656-21.344,4.006
								c-6.933,5.208-9.759,12.823-11.012,21.124c-0.718,4.761-1.249,9.764-3.892,13.93c-3.809,6.004-9.448,4.575-15.476,5.451
								c-6.735,0.979-11.61,6.127-13.467,12.481c-0.336,1.151,1.457,1.642,1.793,0.494c1.384-4.735,4.57-8.871,9.364-10.534
								c3.683-1.278,7.495-0.2,11.226-0.966c5.441-1.117,8.64-5.693,10.322-10.702c2.59-7.716,1.724-15.956,6.187-23.105
								c5.54-8.876,15.656-12.92,25.807-10.385C185.29,91.073,185.785,89.281,184.623,88.991L184.623,88.991z"/>
						</g>
					</g>
				</g>
				<g>
					<g>
						<path style="fill:#E0815E;" d="M187.484,118.853c0,0,2.869,24.759,3.342,26.646c0,0-7.512,8.431-18.41,2.359
							c0,0,1.27-5.932,3.192-21.085L187.484,118.853z"/>
						<path style="fill:#020A2B;" d="M186.267,100.98L186.267,100.98c-5.02-1.014-9.658,4.943-11.265,12.896l-0.123,0.608
							c-1.607,7.953,1.55,17.57,5.785,18.314l0.193-0.009c3.405,0.342,8.988-6.722,10.595-14.675l0.889-0.948
							C193.949,109.212,191.285,101.994,186.267,100.98z"/>
					</g>
					<g>
						<path style="fill:#E0815E;" d="M167.384,116.828l3.988-1.354l-1.509-4.446l-3.988,1.354c-1.228,0.417-1.885,1.75-1.468,2.978
							l0,0C164.823,116.588,166.156,117.245,167.384,116.828z"/>
						<path style="fill:#E0815E;" d="M194.461,108.808l-4.05,1.153l1.285,4.516l4.05-1.152c1.247-0.355,1.97-1.654,1.616-2.901l0,0
							C197.007,109.177,195.708,108.453,194.461,108.808z"/>
						
							<path style="fill:#B8532E;stroke:#B8532E;stroke-width:1.1294;stroke-linecap:round;stroke-linejoin:round;stroke-miterlimit:10;" d="
							M194.964,109.964l-1.672,0.476l0.531,1.864l1.672-0.476c0.515-0.146,0.814-0.683,0.667-1.197l0,0
							C196.014,110.116,195.478,109.817,194.964,109.964z"/>
						
							<path style="fill:#B8532E;stroke:#B8532E;stroke-width:1.1294;stroke-linecap:round;stroke-linejoin:round;stroke-miterlimit:10;" d="
							M166.241,113.65l1.637-0.587l0.654,1.825l-1.637,0.587c-0.504,0.181-1.059-0.082-1.239-0.586l0,0
							C165.475,114.385,165.737,113.83,166.241,113.65z"/>
						<path style="fill:#E0815E;" d="M177.125,98.189l-0.001,0c-7.611,1.797-11.161,9.141-9.414,16.54l0.134,0.565
							c1.747,7.399,9.331,12.586,15.697,10.977l0.052-0.026c4.988-1.504,12.187-9.937,10.44-17.336l-0.133-0.565
							C192.152,100.945,184.737,96.392,177.125,98.189z"/>
						<path style="fill:#FFFFFF;" d="M181.991,120.429l0.552-0.176c1.946-0.62,3.021-2.701,2.4-4.647l0,0l-7.599,2.423l0,0
							C177.964,119.975,180.044,121.05,181.991,120.429z"/>
						<path style="fill:#020A2B;" d="M181.964,111.504c0.175,0.551,0.656,0.891,1.074,0.758c0.418-0.133,0.616-0.687,0.441-1.239
							c-0.175-0.551-0.656-0.891-1.074-0.758C181.987,110.398,181.79,110.952,181.964,111.504z"/>
						<path style="fill:#020A2B;" d="M176.056,113.37c0.133,0.563,0.587,0.938,1.014,0.837c0.427-0.101,0.666-0.639,0.533-1.202
							c-0.133-0.563-0.587-0.938-1.014-0.837C176.162,112.269,175.923,112.807,176.056,113.37z"/>
						<path style="fill:#B8532E;" d="M179.68,115.706l2.014-0.574c0.248-0.07,0.321-0.44,0.138-0.694l-1.636-2.272
							c-0.208-0.289-0.572-0.203-0.618,0.146l-0.378,2.845C179.158,115.478,179.421,115.78,179.68,115.706z"/>
						<path style="fill:#020A2B;" d="M173.542,111.644c-0.449,0.511-0.028-1.386,0.664-1.763c0.692-0.376,1.516-0.197,1.841,0.4
							C176.046,110.281,174.62,110.417,173.542,111.644z"/>
						<path style="fill:#020A2B;" d="M184.451,108.118c0.661,0.162-0.77-1.153-1.553-1.066c-0.783,0.087-1.356,0.705-1.281,1.381
							C181.617,108.432,182.865,107.729,184.451,108.118z"/>
						<circle style="fill:#F9DF43;" cx="195.772" cy="115.028" r="2.577"/>
						<path style="fill:#F9DF43;" d="M170.084,118.52c0,1.423-1.154,2.577-2.577,2.577c-1.423,0-2.577-1.154-2.577-2.577
							c0-1.423,1.154-2.577,2.577-2.577C168.93,115.942,170.084,117.096,170.084,118.52z"/>
					</g>
				</g>
				<g>
					<path style="fill:#020A2B;stroke:#020A2B;stroke-width:0.6197;stroke-miterlimit:10;" d="M184.478,96.78
						c0,0-11.144,14.843-21.838,12.005C162.641,108.786,169.602,86.4,184.478,96.78z"/>
					<g>
						<g>
							<path style="fill:#020A2B;" d="M163.685,103.898c-0.39,2.228-1.564,6.137,0.427,7.878c1.844,1.612,4.701,0.317,6.467-0.708
								c5.765-3.347,10.424-9.088,14.98-13.848c0.827-0.864-0.485-2.181-1.314-1.314c-2.816,2.942-5.647,5.876-8.605,8.677
								c-1.534,1.452-3.092,2.936-4.846,4.124c-1.606,1.089-4.366,3.352-5.82,0.334c-0.437-0.908,0.386-3.974,0.504-4.649
								C165.682,103.223,163.891,102.72,163.685,103.898L163.685,103.898z"/>
						</g>
					</g>
					<path style="fill:#020A2B;stroke:#020A2B;stroke-width:0.6197;stroke-miterlimit:10;" d="M182.61,95.473
						c0,0,2.619,14.568,11.076,12.495l3.219-0.655C196.905,107.313,193.25,90.508,182.61,95.473z"/>
				</g>
				<g>
					<path style="fill:#E0815E;" d="M236.73,190.127c-6.762,1.239-20.184-0.242-26.326-1.607c-3.956-0.879-4.814-7.574-6.554-24.395
						l-0.669-11.185c-0.239-3.99-2.479-7.588-5.953-9.564l-5.56-3.162c-1.49,6.789-4.874,19.375-4.874,19.375
						c2.486,31.411,11.441,46.591,26.698,45.117c5.887-0.569,23.421-3.354,23.421-3.354L236.73,190.127z"/>
					<g>
						<path style="fill:#F9DF43;" d="M159.083,147.123c0,0,5.6-2.718,10.208-4.665c4.554-3.302,3.989-7.701,3.989-7.701
							c1.151-0.963,17.351,0.164,17.351,0.164c-0.288,1.605,2.128,8.512,2.128,8.512c-0.299,0.833,8.494,15.183,10.008,23.207
							c1.43,7.581,8.352,31.818,8.352,34.792l-48.451,0.436C162.668,201.868,155.921,157.327,159.083,147.123z"/>
						<path style="opacity:0.14;fill:#FF4F4D;" d="M159.083,147.123c-3.162,10.204,3.585,54.745,3.585,54.745l48.451-0.436
							l-51.587-54.716"/>
					</g>
					<path style="fill:#E0815E;" d="M178.112,261.134c-0.09-1.14-0.384-2.276-0.437-2.901c-0.043-0.506-9.266-80.543-9.266-80.543
						s-0.763-8.102-2.152-16.345c1.211-5.973,2.985-15.398,2.889-18.781c0,0-7.576,3.316-9.638,4.065l0.024,0.085
						c-1.671,0.686-3.763,1.594-4.868,2.258c-6.765,4.069-3.911,30.276-3.911,30.276l0.07-0.005
						c0.562,6.673,14.634,93.058,14.634,93.058l1.938-8.111l0.035,11.521c0.006,0.31,0.546-0.612,0.603-0.915l1.763-9.37
						l0.709,11.622c0.016,0.261,0.393,0.28,0.436,0.022l1.903-11.702c0,0,0.899,11.109,1.541,9.961
						c0.544-0.973,1.159-10.523,1.335-13.42l0.636,0.694c0.885,2.241,2.5,6.067,2.877,5.136
						C179.478,267.128,178.848,264.133,178.112,261.134z"/>
					<polygon style="opacity:0.2;fill:#02022B;" points="236.675,190.127 230.8,202.209 236.93,201.389 					"/>
				</g>
			</g>
		</g>
		<g>
			<g>
				<g>
					<path style="fill:#BACFD4;" d="M645.237,439.973c0,1.024-9.548,1.854-21.326,1.854c-11.778,0-21.326-0.83-21.326-1.854
						c0-1.024,9.548-1.854,21.326-1.854C635.689,438.118,645.237,438.949,645.237,439.973z"/>
					<g>
						<polygon style="fill:#E0815E;" points="628.115,418.348 633.391,441.285 668.486,441.285 668.486,438.513 648.53,426.918 
							646.083,418.768 						"/>
						<polygon style="fill:#B8532E;" points="638.551,418.768 633.391,441.285 628.115,418.348 						"/>
						<path style="fill:#5CC8E0;stroke:#5CC8E0;stroke-width:0.9294;stroke-miterlimit:10;" d="M648.782,426.918l-5.94,6.356
							c-1.562,1.671-4.036,1.725-5.656,0.122l-6.754-6.73l3.211,14.619h35.095v-2.773L648.782,426.918z"/>
					</g>
				</g>
				<g>
					<path style="fill:#BACFD4;" d="M552.791,439.973c0,1.024-9.548,1.854-21.326,1.854c-11.778,0-21.326-0.83-21.326-1.854
						c0-1.024,9.548-1.854,21.326-1.854C543.243,438.118,552.791,438.949,552.791,439.973z"/>
					<g>
						<polygon style="fill:#E0815E;" points="531.264,418.096 525.988,441.033 490.893,441.033 490.893,438.26 510.849,426.666 
							512.378,418.516 						"/>
						<polygon style="fill:#B8532E;" points="520.166,418.25 531.264,418.096 525.988,441.033 						"/>
						<path style="fill:#5CC8E0;stroke:#5CC8E0;stroke-width:0.9294;stroke-miterlimit:10;" d="M510.467,426.666l5.94,6.356
							c1.562,1.671,4.036,1.724,5.656,0.122l6.754-6.73l-3.211,14.619h-35.095v-2.773L510.467,426.666z"/>
					</g>
				</g>
				<g>
					<path style="fill:#1E3252;stroke:#1E3252;stroke-width:1.4461;stroke-miterlimit:10;" d="M599.234,236.197l46.751,182.826
						l-19.421-0.504L571.87,294.623c-1.734-5.252-7.549-5.2-9.41,0l-31.494,124.655l-21.509-0.336
						c0,0,13.089-104.677,27.493-184.555L599.234,236.197z"/>
					<g>
						<path style="fill:none;stroke:#FFFFFF;stroke-width:0.6531;stroke-miterlimit:10;" d="M586.233,235.047
							c-0.309-0.309,53.98,184.423,53.98,184.423"/>
						
							<line style="fill:none;stroke:#FFFFFF;stroke-width:0.6531;stroke-miterlimit:10;" x1="517.618" y1="419.565" x2="548.835" y2="233.501"/>
						
							<line style="fill:none;stroke:#FFFFFF;stroke-width:0.6531;stroke-miterlimit:10;stroke-dasharray:3.2986;" x1="622.086" y1="408.747" x2="644.03" y2="408.747"/>
						
							<line style="fill:none;stroke:#FFFFFF;stroke-width:0.6531;stroke-miterlimit:10;stroke-dasharray:3.2986;" x1="510.819" y1="408.747" x2="532.763" y2="408.747"/>
					</g>
				</g>
			</g>
			<g>
				<g>
					<path style="fill:#E0815E;" d="M675.897,107.008c0.434-2.633,0.654-4.224,0.654-4.224s1.682-15.252-4.988-25.165
						c-0.978-1.453,2.1,3.059,2.1,3.059s-4.368-6.363-5.424-6.877c-1.056-0.514,2.92,6.587,2.92,6.587s-4.397-7.582-5.676-7.483
						c-1.278,0.099,2.195,8.87,2.195,8.87s-2.669-9.651-3.95-9.656c-1.427-0.005,0.851,22.724-1.636,20.041
						c-0.827-0.893-4.449-7.102-6.284-6.725c-1.835,0.377,6.753,14.349,6.753,14.349l0,0.001c0.176,0.433,0,1.106-0.179,1.553
						L675.897,107.008z"/>
					<g>
						<path style="fill:#FF4F4D;" d="M661.187,100.874l-6.22,16.369c-4.237,10.571-14.878,21.475-24.713,17.908l-31.416-11.396
							c-3.558-1.72-7.259-2.944-10.749-3.273c-0.221-0.078-0.349-0.12-0.349-0.12l-8.603-4.214l-18.781,3.55l-6.658,4.962
							c-16.717,3.202-52.227,14.446-52.227,14.446c7.339,5.195,13.674,14.653,13.674,14.653s-1.378,2.259-3.299,5.417
							c5.024,6.329,10.595,12.841,19.474,16.733c2.032,0.891,6.174,1.869,8.704,2.639l-6.374,66.071l69.21,1.116
							c0,0,10.551-47.01,12.571-77.071l1.233,0.467c16.153,5.669,33.937-0.089,46.159-13.913
							c9.973-11.281,14.895-47.469,14.895-47.469L661.187,100.874z"/>
						<path style="opacity:0.2;fill:#02022B;" d="M540.024,178.549c-2.53-0.77-6.672-1.748-8.704-2.639
							c-8.879-3.892-14.45-10.404-19.474-16.733c1.921-3.158,3.299-5.417,3.299-5.417L540.024,178.549z"/>
						<path style="opacity:0.2;fill:#02022B;" d="M615.439,168.733l-44.838,76.706l32.259,0.296
							C602.861,245.736,613.86,194.755,615.439,168.733z"/>
						
							<line style="fill:none;stroke:#FFFFFF;stroke-width:0.6531;stroke-miterlimit:10;" x1="657.506" y1="110.649" x2="675.685" y2="119.074"/>
					</g>
				</g>
				<g>
					<g>
						<path style="fill:#E0815E;" d="M578.169,99.749l2.812,20.44c0,0-27.008,21.77-25.419,4.265l3.419-23.988L578.169,99.749z"/>
						<path style="fill:#02022B;" d="M576.377,78.594l2.366,22.581c0,0-22.478,27.854-20.502,0.632l4.777-23.86L576.377,78.594z"/>
					</g>
					<g>
						<g>
							<g>
								<path style="fill:#E0815E;stroke:#E0815E;stroke-width:1.3229;stroke-miterlimit:10;" d="M552.902,88.435l3.901-1.099
									l0.909,4.649l-3.901,1.099c-1.201,0.339-2.378-0.428-2.629-1.712l0,0C550.93,90.089,551.7,88.773,552.902,88.435z"/>
								<path style="fill:#B8532E;" d="M553.251,89.61l1.611-0.454l0.375,1.919l-1.611,0.454c-0.496,0.14-0.982-0.177-1.086-0.707
									l0,0C552.437,90.293,552.755,89.75,553.251,89.61z"/>
							</g>
							<g>
								<path style="fill:#E0815E;stroke:#E0815E;stroke-width:1.3229;stroke-miterlimit:10;" d="M583.713,87.195l-3.974,0.541
									l-0.328-4.77l3.975-0.541c1.224-0.167,2.289,0.766,2.38,2.084l0,0C585.855,85.826,584.937,87.029,583.713,87.195z"/>
								<path style="fill:#B8532E;" d="M583.55,83.95l-1.643,0.193l0.105,1.973l1.643-0.193c0.506-0.06,0.893-0.549,0.864-1.094l0,0
									C584.489,84.284,584.056,83.891,583.55,83.95z"/>
							</g>
							<path style="fill:#E0815E;stroke:#E0815E;stroke-width:1.3229;stroke-miterlimit:10;" d="M568.628,104.817l-0.085,0.021
								c-9.375,0.395-13.358-5.916-13.513-13.903l-0.012-0.61c-0.154-7.987,4.179-20.758,11.579-21.339l-0.021-0.085
								c7.4-0.582,15.087,11.332,15.241,19.318l0.012,0.61C581.984,96.815,579.152,104.141,568.628,104.817z"/>
						</g>
						<g>
							<path style="fill:#FFFFFF;" d="M569.317,99.605l-0.011,0.001c-3.258,0.292-5.96-1.751-6.036-4.562l-0.01-0.385l11.807-1.059
								l0.01,0.385C575.154,96.797,572.574,99.313,569.317,99.605z"/>
							<path style="fill:#02022B;" d="M565.771,87.718c0.002,0.583-0.342,1.057-0.769,1.059c-0.427,0.002-0.775-0.47-0.777-1.053
								c-0.002-0.583,0.342-1.057,0.769-1.059C565.421,86.663,565.769,87.135,565.771,87.718z"/>
							<path style="fill:#02022B;" d="M572.725,86.975c-0.002,0.585-0.351,1.058-0.778,1.057c-0.427-0.002-0.772-0.478-0.769-1.063
								c0.002-0.585,0.35-1.059,0.778-1.057C572.382,85.913,572.727,86.389,572.725,86.975z"/>
							<path style="fill:#B8532E;" d="M570.205,92.026l-2.744,0.145c-0.338,0.018-0.585-0.398-0.466-0.782l1.07-3.425
								c0.136-0.436,0.623-0.483,0.829-0.081l1.674,3.279C570.757,91.534,570.558,92.007,570.205,92.026z"/>
							<path style="fill:#02022B;" d="M561.36,84.755c-0.761,0.658,0.237-2.038,1.326-2.451c1.089-0.413,2.261,0.015,2.618,0.955
								C565.305,83.259,563.187,83.174,561.36,84.755z"/>
							<path style="fill:#02022B;" d="M574.081,82.675c0.891,0.468-0.694-1.931-1.849-2.085c-1.155-0.154-2.199,0.529-2.332,1.526
								C569.9,82.116,571.943,81.55,574.081,82.675z"/>
						</g>
						<path style="fill:#02022B;" d="M579.768,73.231c-0.089-0.208-0.185-0.404-0.28-0.597c0.951-0.432,1.518-0.722,1.518-0.722
							s-1.117-15.911-2.93-16.156c-0.711-0.096-20.213,4.493-25.134,17.431c-0.134,0.352-0.108,0.687,0.036,1.005
							c-0.123,0.259-0.236,0.522-0.335,0.79c-0.733,1.991-0.834,4.177-0.541,6.241c0.139,0.981,1.92,6.595,2.836,6.685
							c0.413,0.04,2.647-7.222,3.989-11.214c2.235,0.288,4.862,0.307,7.501-0.046c2.998-0.401,5.997-1.279,8.494-2.171
							c1.882,2.537,5.855,7.609,6.519,7.634C582.078,82.139,580.36,74.606,579.768,73.231z"/>
					</g>
				</g>
			</g>
		</g>
		<g>
			<g>
				<g>
					<path style="fill:#BACFD4;" d="M442.387,439.308c0,1.024-9.548,1.854-21.326,1.854c-11.778,0-21.326-0.83-21.326-1.854
						s9.548-1.854,21.326-1.854C432.839,437.453,442.387,438.284,442.387,439.308z"/>
					<g>
						<polygon style="fill:#F7B27E;" points="413.695,416.132 414.361,435.234 452.995,434.95 431.21,425.299 429.245,415.641 
													"/>
						<polygon style="fill:#D46F4C;" points="429.245,415.641 414.361,435.234 413.695,416.132 						"/>
						<polygon style="fill:#FF4F4D;" points="433.394,424.723 452.995,434.95 414.361,435.234 						"/>
						<rect x="414.186" y="434.956" style="fill:#5CC8E0;" width="39.285" height="6.22"/>
					</g>
				</g>
				<g>
					<path style="fill:#BACFD4;" d="M394.501,439.308c0,1.024-9.548,1.854-21.326,1.854s-21.326-0.83-21.326-1.854
						s9.548-1.854,21.326-1.854S394.501,438.284,394.501,439.308z"/>
					<g>
						<polygon style="fill:#F7B27E;" points="370.189,414.929 372.885,435.234 334.25,434.95 356.569,424.807 355.621,413.783 
													"/>
						<polygon style="fill:#D46F4C;" points="355.621,413.783 370.189,414.929 372.885,435.234 						"/>
						<polygon style="fill:#FF4F4D;" points="353.851,424.723 334.25,434.95 372.885,435.234 						"/>
						<rect x="333.98" y="434.956" style="fill:#5CC8E0;" width="39.285" height="6.22"/>
					</g>
				</g>
				<g>
					<path style="fill:#1E3252;" d="M357.15,202.925l34.448,7.128c0,0,10.494-0.378,42.879,205.296l-21.6,0.947l-40.97-155.567
						c-0.594-2.254-3.92-1.789-3.872,0.541l7.473,155.215l-22.626-1.705c0,0-27.215-156.813-16.609-181.812
						C346.878,207.969,357.15,202.925,357.15,202.925z"/>
					<g>
						<path style="fill:none;stroke:#FFFFFF;stroke-width:0.6531;stroke-miterlimit:10;" d="M337.633,229.895
							c0,0,13.599,5.769,21.017-6.182c7.418-11.951,9.478-18.544,9.478-18.544"/>
						<path style="fill:none;stroke:#FFFFFF;stroke-width:0.6531;stroke-miterlimit:10;" d="M380.492,208.054
							c0,0,1.03,25.138,9.066,27.817c8.036,2.679,11.951,2.267,11.951,2.267"/>
						
							<line style="fill:none;stroke:#FFFFFF;stroke-width:0.6531;stroke-miterlimit:10;" x1="389.558" y1="235.871" x2="427.387" y2="415.312"/>
						
							<line style="fill:none;stroke:#FFFFFF;stroke-width:0.6531;stroke-miterlimit:10;" x1="345.875" y1="231.132" x2="361.947" y2="415.341"/>
					</g>
					<path style="opacity:0.51;fill:#1E3252;" d="M391.598,210.052l-34.448-7.128c0,0-24.668,22.231-22.813,42.63L391.598,210.052z"
						/>
				</g>
			</g>
			<g>
				<g>
					<g>
						<path style="fill:#02022B;" d="M364.541,101.509c0.829-4.069,3.28-11.698,9.859-13.369c6.367-1.617,10.977-1.097,17.77,2.176
							c8.883,4.281,14.486,32.655,14.486,32.655s-11.867,13.095-44.932,0.327C361.725,123.299,363.445,106.891,364.541,101.509z"/>
						<g>
							<g>
								<path style="fill:#02022B;" d="M359.949,121.657c1.281-10.171,3.889-23.403,13.154-29.315
									c1.331-0.85,0.098-2.98-1.242-2.125c-10.136,6.468-12.973,20.333-14.373,31.44
									C357.29,123.225,359.753,123.21,359.949,121.657L359.949,121.657z"/>
							</g>
						</g>
					</g>
					<g>
						
							<path style="fill:#F7B27E;stroke:#F7B27E;stroke-width:1.4235;stroke-linecap:round;stroke-linejoin:round;stroke-miterlimit:10;" d="
							M369.943,116.924c0,0-3.159,24.612-3.471,26.59c0,0,10.667,12.721,21.579,1.782c0,0-1.845-5.968-5.202-21.335L369.943,116.924
							z"/>
						<path style="fill:#02022B;" d="M378.566,151.02c0,0-1.038,5.218,9.874-5.722c0,0-0.896-4.943-1.627-7.728L378.566,151.02z"/>
						<path style="fill:#02022B;" d="M383.687,124.181c-0.887,3.219-6.388,5.903-9.43,5.258c-3.704-0.786-5.348-7.388-4.998-10.113
							c0.294-2.292,6.638-3.525,9.635-2.698C381.892,117.455,384.574,120.963,383.687,124.181z"/>
					</g>
					<g>
						<g>
							<g>
								<path style="fill:#F7B27E;stroke:#F7B27E;stroke-width:1.3848;stroke-miterlimit:10;" d="M365.191,104.658l4.272,0.746
									l-0.832,4.763l-4.272-0.746c-1.315-0.23-2.195-1.482-1.966-2.798v0C362.624,105.308,363.876,104.428,365.191,104.658z"/>
								<path style="fill:#D46F4C;stroke:#D46F4C;stroke-width:1.3703;stroke-miterlimit:10;" d="M364.8,105.895l1.764,0.308
									l-0.343,1.966l-1.763-0.308c-0.543-0.095-0.906-0.612-0.812-1.155l0,0C363.74,106.163,364.258,105.8,364.8,105.895z"/>
							</g>
							<g>
								<path style="fill:#F7B27E;stroke:#F7B27E;stroke-width:1.3848;stroke-miterlimit:10;" d="M393.031,114.652l-4.136-1.302
									l1.451-4.612l4.137,1.302c1.274,0.401,1.981,1.758,1.58,3.032l0,0C395.662,114.345,394.305,115.053,393.031,114.652z"/>
								<path style="fill:#D46F4C;stroke:#D46F4C;stroke-width:1.3703;stroke-miterlimit:10;" d="M394.135,111.353l-1.698-0.566
									l-0.631,1.894l1.698,0.566c0.523,0.174,1.088-0.108,1.263-0.631l0,0C394.94,112.093,394.658,111.527,394.135,111.353z"/>
							</g>
							<path style="fill:#F7B27E;stroke:#F7B27E;stroke-width:1.3848;stroke-miterlimit:10;" d="M384.363,95.095l0.001,0
								c7.676,2.435,10.696,10.429,8.261,18.106l-0.186,0.587c-2.435,7.676-10.685,12.607-17.097,10.459l-0.051-0.031
								c-5.003-1.94-11.683-11.342-9.248-19.018l0.186-0.586C368.664,96.934,376.686,92.66,384.363,95.095z"/>
						</g>
						<g>
							<path style="fill:#FFFFFF;" d="M376.848,118.65l0.563,0.134c1.987,0.474,3.982-0.752,4.456-2.739l0,0l-7.758-1.851l0,0
								C373.635,116.181,374.861,118.176,376.848,118.65z"/>
							<path style="fill:#02022B;" d="M381.437,110.994c-0.135,0.563,0.101,1.102,0.528,1.204c0.427,0.103,0.882-0.27,1.017-0.833
								c0.135-0.562-0.101-1.102-0.528-1.204C382.027,110.059,381.572,110.432,381.437,110.994z"/>
							<path style="fill:#02022B;" d="M375.414,109.539c-0.177,0.551,0.018,1.106,0.436,1.24c0.418,0.134,0.9-0.203,1.077-0.754
								c0.177-0.551-0.018-1.106-0.436-1.24C376.073,108.651,375.591,108.988,375.414,109.539z"/>
							<path style="fill:#D97570;" d="M377.31,113.412l2.021,0.549c0.249,0.068,0.502-0.211,0.477-0.523l-0.227-2.791
								c-0.029-0.355-0.385-0.469-0.604-0.194l-1.793,2.241C376.98,112.947,377.05,113.341,377.31,113.412z"/>
							<path style="fill:#02022B;" d="M374.153,106.762c-0.648,0.205,0.692-1.201,1.479-1.167c0.786,0.035,1.4,0.614,1.37,1.294
								C377.001,106.889,375.71,106.269,374.153,106.762z"/>
							<path style="fill:#02022B;" d="M385.315,109.379c0.482,0.48-0.064-1.385-0.779-1.715c-0.715-0.33-1.525-0.097-1.81,0.521
								C382.726,108.185,384.158,108.227,385.315,109.379z"/>
						</g>
					</g>
					<g>
						<path style="fill:#02022B;" d="M375.426,94.245c15.381,9.476,19.039,15.462,19.039,15.462s3.952-18.69-16.736-19.233
							C364.364,90.123,374.486,93.666,375.426,94.245z"/>
						<path style="fill:#02022B;" d="M377.193,94c0,0-6.005,8.529-7.53,9.985c-1.741,1.663-4.462-0.263-4.462-0.263
							S366.068,90.399,377.193,94z"/>
					</g>
					<g>
						<g>
							<path style="fill:none;stroke:#F9DF43;stroke-miterlimit:10;" d="M399.786,121.18c0,2.785-2.258,5.043-5.043,5.043
								c-2.785,0-5.044-2.258-5.044-5.043c0-2.785,2.258-5.044,5.044-5.044C397.528,116.136,399.786,118.394,399.786,121.18z"/>
							<path style="fill:#F9DF43;" d="M394.977,115.471c0,0.558-0.452,1.01-1.01,1.01s-1.01-0.452-1.01-1.01
								c0-0.558,0.452-1.01,1.01-1.01S394.977,114.913,394.977,115.471z"/>
						</g>
						<g>
							<path style="fill:none;stroke:#F9DF43;stroke-miterlimit:10;" d="M365.999,117.458c-1.342,2.441-4.409,3.331-6.85,1.989
								c-2.441-1.342-3.331-4.409-1.989-6.85c1.342-2.441,4.409-3.331,6.85-1.989C366.45,111.951,367.341,115.017,365.999,117.458z"
								/>
							<path style="fill:#F9DF43;" d="M364.535,110.138c-0.269,0.489-0.883,0.667-1.372,0.399c-0.489-0.269-0.667-0.883-0.398-1.372
								c0.269-0.489,0.883-0.667,1.372-0.398C364.626,109.035,364.804,109.65,364.535,110.138z"/>
						</g>
					</g>
				</g>
				<g>
					<g>
						<g>
							<g>
								<path style="fill:#F7B27E;" d="M347.453,157.926l-4.215-24.451c0,0-5.864,0.009-13.811,0.093l4.891,8.563l-1.039,2.224
									C333.278,144.354,341.758,156.72,347.453,157.926z"/>
							</g>
						</g>
						<g>
							<g>
								<path style="opacity:0.2;fill:#02022B;" d="M334.317,142.13l-1.039,2.224c0,0,8.48,12.366,14.174,13.572l-3.866-12.138
									L334.317,142.13z"/>
							</g>
						</g>
					</g>
					<g>
						<path style="fill:#F9DF43;" d="M421.508,171.406l-10.849-26.695c-3.745-5.826-7.179-7.505-11.837-6.859
							c-1.489,0.207-2.736,0.633-3.81,1.211l-7.495,1.477c-10.838,7.347-20.473-3.383-20.473-3.383
							c-8.293-6.547-27.063-11.785-27.063-11.785l3.055,29.245c0,0,7.639,28.59,7.689,29.556c0.472,8.971-0.103,24.571,0.02,24.333
							c0.123-0.238,48.228,6.188,48.598,5.474c0.37-0.714,0.436-6.111,1.309-25.753c0.115-2.582,0.162-5.137,0.159-7.648
							L421.508,171.406z"/>
						<g>
							<defs>
								<path id="SVGID_1_" d="M421.508,171.406l-10.849-26.695c-3.745-5.826-7.179-7.505-11.837-6.859
									c-1.489,0.207-2.736,0.633-3.81,1.211l-7.495,1.477c-10.838,7.347-20.473-3.383-20.473-3.383
									c-8.293-6.547-27.063-11.785-27.063-11.785l3.055,29.245c0,0,7.639,28.59,7.689,29.556
									c0.472,8.971-0.103,24.571,0.02,24.333c0.123-0.238,48.228,6.188,48.598,5.474c0.37-0.714,0.436-6.111,1.309-25.753
									c0.115-2.582,0.162-5.137,0.159-7.648L421.508,171.406z"/>
							</defs>
							<clipPath id="SVGID_00000129897024759077285000000004912108185367347132_">
								<use xlink:href="#SVGID_1_"  style="overflow:visible;"/>
							</clipPath>
							<g style="clip-path:url(#SVGID_00000129897024759077285000000004912108185367347132_);">
								<g>
									<g>
										<path style="fill:#FFFFFF;" d="M375.02,210.413c-8.436-6.8-16.835-13.978-22.835-23.114
											c-2.892-4.404-5.228-9.219-6.581-14.324c-0.549-2.072-2.635-6.778,0.186-6.593c2.007,0.132,5.125,2.27,6.917,3.137
											c18.714,9.054,33.112,28.208,37.555,48.596c0.159,0.73,1.279,0.421,1.12-0.309c-2.63-12.07-9.348-23.494-16.953-33.115
											c-7.934-10.038-18.858-15.348-30.37-20.314c-0.368-0.159-0.906,0.015-0.874,0.502
											c1.315,20.158,16.197,34.413,31.013,46.356C374.775,211.699,375.602,210.882,375.02,210.413L375.02,210.413z"/>
									</g>
								</g>
								<g>
									<g>
										<path style="fill:#FFFFFF;" d="M337.707,128.797c15.39,25.36,33.557,52.699,64.141,60.382
											c0.524,0.132,0.863-0.404,0.656-0.853c-6.427-13.933-14.605-26.979-24.46-38.747
											c-9.479-11.319-21.306-24.345-35.023-30.445c-0.677-0.301-1.269,0.7-0.586,1.003
											c13.134,5.841,24.526,18.223,33.731,29.014c9.349,10.96,17.304,23.1,23.592,36.061c0.805,1.659,1.695,1.977,0.066,2.239
											c-1.354,0.218-4.061-1.275-5.324-1.757c-3.447-1.317-6.769-2.952-9.955-4.809c-6.466-3.769-12.343-8.518-17.621-13.811
											c-11.367-11.401-19.909-25.176-28.215-38.861C338.323,127.572,337.318,128.156,337.707,128.797L337.707,128.797z"/>
									</g>
								</g>
								<g>
									<g>
										<path style="fill:#FFFFFF;" d="M391.322,139.89c3.997,18.217,19.209,33.39,38.86,30.9c0.732-0.093,0.741-1.256,0-1.162
											c-19.174,2.431-33.843-12.288-37.739-30.046C392.282,138.851,391.162,139.16,391.322,139.89L391.322,139.89z"/>
									</g>
								</g>
							</g>
						</g>
					</g>
					<g>
						<g>
							<defs>
								<path id="SVGID_00000145766993633334555570000015078009845224490906_" d="M454.613,193.52l0.407,10.332l0.928-0.002
									l-1.875,3.967c0,0-23.929,1.826-36.287-2.757c-12.358-4.583-15.959-20.542-17.105-24.307l17.105-7.611
									c0,0,2.946,12.276,6.138,14.241C427.117,189.346,454.613,193.52,454.613,193.52z"/>
							</defs>
							<clipPath id="SVGID_00000096040430943374220310000008477545272213353888_">
								<use xlink:href="#SVGID_00000145766993633334555570000015078009845224490906_"  style="overflow:visible;"/>
							</clipPath>
							<g style="clip-path:url(#SVGID_00000096040430943374220310000008477545272213353888_);">
								
									<path style="fill:#F7B27E;stroke:#F7B27E;stroke-width:1.4674;stroke-linecap:round;stroke-linejoin:round;stroke-miterlimit:10;" d="
									M395.853,167.822c0,0,6.985,15.639,8.118,21.2c1.577,7.739,7.792,13.87,15.452,15.793
									c10.888,2.733,19.532,2.952,34.043,2.211l20.677-3.295c16.545-1.002,23.071-4.193,23.071-4.193l-10.805,0.799l14.249-4.587
									c0.381-0.13-0.973-0.434-1.371-0.385l-12.296,1.513l14.108-5.461c0.317-0.123,0.192-0.598-0.145-0.548l-15.237,2.259
									c0,0,13.397-5.494,11.723-5.836c-1.675-0.342-18.188,3.907-18.188,3.907s8.694-6.777,6.881-6.915
									c-1.177-0.089-7.314,3.676-11.472,6.326c-2.678,1.707-5.713,2.866-8.874,3.414l-8.151,0.93
									c-1.147-0.164-2.252-0.324-3.32-0.48c-14.094-2.061-21.612-3.487-30.935-6.488c-7.232-12.634-8.214-22.783-8.214-22.783
									L395.853,167.822z"/>
								<path style="fill:#D46F4C;" d="M482.211,189.758c0,0-1.912,2.304-3.245,3.808l9.047-5.224L482.211,189.758z"/>
							</g>
						</g>
						<polygon style="opacity:0.2;fill:#02022B;" points="454.6,193.729 455.021,203.852 455.949,203.85 454.074,207.817 
							450.61,207.918 454.101,193.618 						"/>
					</g>
				</g>
			</g>
		</g>
	</g>
</g>
</svg>
